<svg xmlns="http://www.w3.org/2000/svg" viewBox="0 0 640 360"><defs><linearGradient id="a" y2="1"><stop stop-color="#19354E"/><stop offset="1" stop-color="#09141F"/></linearGradient></defs><rect width="640" height="360" fill="url(#a)"/><path d="M0 286h640" stroke="#577D9B" stroke-width="4"/><path d="M48 184h405v24H48z" fill="#F0F4F8"/><path d="M48 184h55v24H48zm110 0h55v24h-55zm110 0h55v24h-55zm110 0h55v24h-55z" fill="#E64B43"/><rect x="453" y="113" width="56" height="195" rx="8" fill="#E6AD28"/><rect x="463" y="129" width="36" height="72" rx="6" fill="#102332"/><circle cx="481" cy="153" r="11" fill="#6BB7EF"/><path d="M85 286h178l22 39H61l24-39Z" fill="#152D41"/><circle cx="101" cy="324" r="16" fill="#050B10"/><circle cx="241" cy="324" r="16" fill="#050B10"/><path d="M105 256h117l36 30H84l21-30Z" fill="#B7CCDA"/></svg>
